<svg version="1.1" id="Layer_1" xmlns="http://www.w3.org/2000/svg" xmlns:xlink="http://www.w3.org/1999/xlink" x="0px" y="0px"
	 width="100%" viewBox="0 0 512 512" enable-background="new 0 0 512 512" xml:space="preserve">
<path fill="#000000" opacity="1.000000" stroke="none" 
	d="
M55.000000,513.000000 
	C37.008430,513.000000 19.016859,513.000000 1.018967,513.000000 
	C1.012645,342.421692 1.012645,171.843384 1.012645,1.000000 
	C122.354637,1.000000 243.709473,1.000000 365.550140,1.354147 
	C361.650909,4.440742 357.265808,7.173188 352.512726,9.973282 
	C336.466705,15.960972 320.449097,18.671782 303.648376,16.082394 
	C288.356415,13.725538 272.978516,11.931860 257.653046,9.785847 
	C239.759964,7.280294 223.805252,10.159118 211.932236,25.393934 
	C210.882599,26.740780 208.712128,27.548889 206.921570,27.910215 
	C203.707733,28.558752 200.335205,28.419163 197.120163,29.063694 
	C184.798935,31.533766 174.688354,37.429623 168.187866,48.563942 
	C161.988983,59.181660 159.436371,70.897491 159.108047,82.964447 
	C158.673706,98.927559 158.999786,114.911377 158.950043,130.946213 
	C158.901062,131.006134 159.014908,131.111023 158.555710,131.062225 
	C155.604919,131.009155 153.095306,130.809250 150.625046,131.036743 
	C142.786499,131.758575 135.557846,134.051163 131.029449,141.042694 
	C124.053871,151.812485 125.514900,166.302505 135.064224,176.470428 
	C142.821518,184.730209 152.899796,187.335175 163.955078,187.456848 
	C170.628647,203.574783 180.032547,217.521637 192.171234,229.470963 
	C197.598846,234.813934 203.945328,239.223465 209.929230,244.518585 
	C210.044739,250.997696 210.105804,257.014832 210.093430,263.492981 
	C209.974152,269.961060 209.928314,275.968079 209.524475,282.132385 
	C206.856369,282.859222 204.545868,283.427246 202.236176,283.998505 
	C192.801376,286.331909 183.366837,288.666351 173.524155,291.003784 
	C159.326675,294.211334 145.594574,297.697998 131.726120,300.512939 
	C123.506500,302.181274 115.666595,304.529968 109.433998,310.170929 
	C92.215340,325.755035 81.939735,345.371216 76.483932,367.943909 
	C71.855026,367.991913 67.680267,367.824463 63.523930,368.029816 
	C50.330956,368.681702 39.302498,379.613739 39.146057,391.544098 
	C38.717804,424.202454 38.818558,456.871735 39.115067,489.533020 
	C39.196957,498.553528 43.932804,505.488403 51.918579,510.041962 
	C53.117996,510.725861 53.981255,511.999268 55.000000,513.000000 
z"/>
<path fill="#000000" opacity="1.000000" stroke="none" 
	d="
M373.000000,0.999999 
	C419.637726,1.000000 466.275482,1.000000 512.952209,1.000000 
	C512.952209,171.666672 512.952209,342.333344 512.952209,513.000000 
	C495.248718,513.000000 477.593018,513.000000 459.154602,512.721313 
	C458.678040,512.049805 458.901031,511.469330 459.302460,511.291595 
	C470.851715,506.176422 475.189606,497.064087 475.089478,484.764587 
	C474.840454,454.184021 474.878204,423.599152 475.083099,393.017914 
	C475.150574,382.944336 465.942841,370.672638 455.736786,369.089813 
	C449.613770,368.140228 443.327972,368.240601 437.079010,367.478088 
	C433.561615,351.875885 427.184692,337.981964 418.149902,325.270935 
	C411.021393,315.241821 402.724823,306.352356 390.759247,302.504852 
	C381.685913,299.587372 372.160431,298.069916 362.827240,295.969025 
	C355.265411,294.266815 347.690277,292.623596 339.935669,290.587860 
	C337.525238,289.809814 335.277344,289.494049 333.079193,288.969757 
	C323.427765,286.667755 313.790710,284.305481 304.083435,281.502594 
	C304.050781,268.712738 304.083130,256.385345 304.426575,243.923447 
	C312.666626,236.522552 320.887604,229.545685 328.451874,221.917572 
	C338.260681,212.025955 344.949768,200.011612 350.514923,187.063126 
	C366.220154,187.058975 378.576050,181.866791 384.918030,167.054214 
	C389.490356,156.374832 388.088196,141.114456 375.934509,134.812973 
	C370.698456,132.098160 364.061676,132.084946 358.265411,130.580292 
	C371.608917,124.827263 379.900085,114.370468 385.853546,102.138565 
	C393.874207,85.659325 397.918152,68.323853 395.131256,49.719372 
	C393.420624,38.299450 390.830902,27.334141 384.330261,17.614609 
	C380.603699,12.042830 376.779999,6.536040 373.000000,0.999999 
z"/>
<path fill="#99E5FB" opacity="1.000000" stroke="none" 
	d="
M55.468658,513.000000 
	C53.981255,511.999268 53.117996,510.725861 51.918579,510.041962 
	C43.932804,505.488403 39.196957,498.553528 39.115067,489.533020 
	C38.818558,456.871735 38.717804,424.202454 39.146057,391.544098 
	C39.302498,379.613739 50.330956,368.681702 63.523930,368.029816 
	C67.680267,367.824463 71.855026,367.991913 76.858788,368.132019 
	C79.681190,368.415863 81.666138,368.679047 83.651131,368.679413 
	C188.968475,368.699493 294.285797,368.699524 399.603149,368.679901 
	C401.417236,368.679565 403.231262,368.415009 405.492004,368.413757 
	C413.146454,368.618134 420.354218,368.682526 427.793152,368.786865 
	C428.346344,368.833710 428.643311,368.750763 429.251953,368.484863 
	C430.049988,368.433289 430.511261,368.474762 431.096008,368.813568 
	C444.735962,375.139801 450.449982,385.389160 450.147797,400.306335 
	C449.579193,428.375458 449.994080,456.464294 449.962585,484.544922 
	C449.960175,486.688263 449.827362,488.859100 449.473114,490.969818 
	C447.490509,502.783173 439.737915,509.292206 429.000000,513.000000 
	C304.645782,513.000000 180.291550,513.000000 55.468658,513.000000 
M315.940948,412.824219 
	C315.940613,424.143005 315.936981,435.461761 315.941132,446.780548 
	C315.944031,454.770142 315.553619,462.792664 316.200745,470.730225 
	C316.407593,473.267548 318.908752,476.702576 321.218536,477.663544 
	C323.318848,478.537354 327.122253,477.294800 329.160461,475.693787 
	C330.697113,474.486694 331.145081,471.249390 331.190308,468.898651 
	C331.393219,458.353363 331.278717,447.801971 331.278717,435.962097 
	C333.059021,438.325470 334.068756,439.574860 334.981293,440.891602 
	C342.466797,451.692474 349.862183,462.556702 357.436798,473.294556 
	C361.363647,478.861298 367.779999,479.603363 371.215851,474.719360 
	C372.712341,472.592163 373.395447,469.476685 373.423096,466.799438 
	C373.608673,448.824524 373.523956,430.846802 373.505127,412.869965 
	C373.503906,411.710907 373.431671,410.529694 373.202698,409.397125 
	C372.401093,405.431946 369.781708,403.268646 365.883850,403.153778 
	C361.921875,403.037018 359.291962,405.302277 358.284363,409.098297 
	C357.868042,410.666656 358.014191,412.400787 358.010986,414.059723 
	C357.990906,424.463593 358.000854,434.867554 358.000854,446.547180 
	C356.264984,444.237518 355.275970,443.008667 354.379791,441.715515 
	C346.515320,430.367706 338.668854,419.007416 330.813660,407.653198 
	C328.564819,404.402679 325.745239,402.258453 321.556030,403.536652 
	C317.491791,404.776733 315.794189,407.765961 315.940948,412.824219 
M87.851021,471.751465 
	C102.785995,479.242676 118.165657,477.391388 127.905388,466.930054 
	C131.609283,462.951752 131.928345,458.712128 128.773438,455.395386 
	C125.631096,452.091919 121.367554,452.339172 117.212616,455.703064 
	C115.062439,457.443939 112.696983,459.253967 110.123146,460.077209 
	C100.153870,463.265839 89.051292,456.772919 85.908928,446.251038 
	C82.707359,435.530914 88.939865,424.167145 99.682640,421.014679 
	C105.860901,419.201721 111.415642,420.598846 116.923782,423.611847 
	C122.624512,426.730164 129.435471,423.262054 128.649902,417.382599 
	C128.263657,414.491852 125.614571,411.008698 123.001648,409.455872 
	C106.384987,399.580780 84.705215,405.475494 74.662285,422.179199 
	C64.417122,439.219208 69.799828,460.247253 87.851021,471.751465 
M286.300903,475.294189 
	C289.966980,473.033112 291.045959,469.677368 289.617615,465.822632 
	C288.238678,462.101410 285.104340,460.809937 281.198181,460.923218 
	C276.579529,461.057220 271.954010,460.954712 267.259003,460.954712 
	C267.259003,456.574738 267.259003,452.717377 267.259003,448.600708 
	C271.509247,448.600708 275.336670,448.687531 279.158691,448.580719 
	C285.185059,448.412323 288.653412,445.336670 288.465027,440.499817 
	C288.285278,435.884033 284.818085,433.095978 279.092926,433.035217 
	C275.142883,432.993317 271.192017,433.027191 267.130737,433.027191 
	C267.130737,428.716827 267.130737,424.981049 267.130737,420.759674 
	C272.210785,420.759674 277.008759,420.898956 281.795105,420.722595 
	C287.132324,420.525909 290.224091,417.428741 290.129181,412.761017 
	C290.039185,408.336578 286.981171,405.287109 281.931793,405.169403 
	C274.438080,404.994690 266.933167,404.982605 259.440643,405.184204 
	C254.377197,405.320496 251.275070,408.334869 251.236435,413.397919 
	C251.096588,431.723419 251.101501,450.051270 251.247925,468.376678 
	C251.282089,472.652679 253.586212,476.024750 258.152435,476.105652 
	C267.290100,476.267578 276.437256,475.893616 286.300903,475.294189 
M413.258698,443.500000 
	C413.259338,451.150787 413.210968,458.802032 413.275665,466.452271 
	C413.330353,472.920349 416.218170,476.359161 421.304810,476.228912 
	C426.171783,476.104218 428.877289,472.730103 428.895721,466.527771 
	C428.936249,452.889526 428.908997,439.251099 428.909393,425.612732 
	C428.909424,423.862396 428.909393,422.112061 428.909393,420.071320 
	C431.974243,420.071320 434.288635,420.167419 436.592285,420.051117 
	C441.246246,419.816101 444.211548,416.902557 444.311981,412.617157 
	C444.413727,408.276276 441.586548,404.957275 436.976532,404.869751 
	C426.502808,404.670807 416.021027,404.683228 405.546295,404.848969 
	C400.910339,404.922272 397.960846,408.130402 397.942413,412.375549 
	C397.923157,416.809296 401.045044,419.854431 405.944366,420.063812 
	C408.216125,420.160919 410.495514,420.080383 413.258881,420.080383 
	C413.258881,427.939850 413.258881,435.219940 413.258698,443.500000 
M153.951035,415.736237 
	C153.951752,432.901245 153.917160,450.066406 153.971954,467.231232 
	C153.991608,473.388275 156.640121,476.098022 162.742249,476.209351 
	C168.905273,476.321808 175.076370,476.354370 181.236160,476.166687 
	C186.085144,476.018860 189.189117,472.666870 189.016418,468.254944 
	C188.851990,464.053711 185.772583,461.115601 181.112808,460.958344 
	C177.337509,460.830933 173.554459,460.932465 169.297562,460.932465 
	C169.297562,458.549683 169.297867,456.755005 169.297501,454.960358 
	C169.294739,441.128357 169.356033,427.295929 169.258728,413.464600 
	C169.217438,407.595856 165.812286,404.339294 160.715729,404.881409 
	C156.206253,405.361053 154.105972,408.443298 153.951035,415.736237 
M227.349854,443.500092 
	C227.347488,433.685577 227.406723,423.870483 227.319290,414.056732 
	C227.268173,408.318573 224.306213,404.968384 219.630936,405.009644 
	C214.915894,405.051300 212.007599,408.402496 211.992111,414.127502 
	C211.943939,431.926575 211.944595,449.725952 211.990463,467.525085 
	C212.004913,473.135590 215.083145,476.655426 219.701782,476.636902 
	C224.311188,476.618408 227.256729,473.187256 227.323578,467.455872 
	C227.412796,459.804871 227.348465,452.152130 227.349854,443.500092 
z"/>
<path fill="#63DBFB" opacity="1.000000" stroke="none" 
	d="
M429.468658,513.000000 
	C439.737915,509.292206 447.490509,502.783173 449.473114,490.969818 
	C449.827362,488.859100 449.960175,486.688263 449.962585,484.544922 
	C449.994080,456.464294 449.579193,428.375458 450.147797,400.306335 
	C450.449982,385.389160 444.735962,375.139801 431.526154,368.713165 
	C433.593658,368.166656 435.354492,368.017853 437.115326,367.869049 
	C443.327972,368.240601 449.613770,368.140228 455.736786,369.089813 
	C465.942841,370.672638 475.150574,382.944336 475.083099,393.017914 
	C474.878204,423.599152 474.840454,454.184021 475.089478,484.764587 
	C475.189606,497.064087 470.851715,506.176422 459.302460,511.291595 
	C458.901031,511.469330 458.678040,512.049805 458.685974,512.721313 
	C449.312439,513.000000 439.624878,513.000000 429.468658,513.000000 
z"/>
<path fill="#433F43" opacity="1.000000" stroke="none" 
	d="
M372.562500,0.999999 
	C376.779999,6.536040 380.603699,12.042830 384.330261,17.614609 
	C390.830902,27.334141 393.420624,38.299450 395.131256,49.719372 
	C397.918152,68.323853 393.874207,85.659325 385.853546,102.138565 
	C379.900085,114.370468 371.608917,124.827263 357.874695,130.639679 
	C356.504852,131.096146 355.729950,131.229126 354.498291,131.285339 
	C346.369507,130.716660 338.697418,130.224762 331.122009,129.420029 
	C331.974426,128.493347 332.649261,127.719017 333.498566,127.290504 
	C341.863373,123.070030 348.388123,116.853065 353.557770,109.107246 
	C366.893982,89.125137 371.753510,67.189842 367.773102,43.581604 
	C365.692749,31.242523 361.574615,19.478462 352.880737,9.905634 
	C357.265808,7.173188 361.650909,4.440742 366.018005,1.354147 
	C368.041656,1.000000 370.083344,1.000000 372.562500,0.999999 
z"/>
<path fill="#554E56" opacity="1.000000" stroke="none" 
	d="
M352.512726,9.973282 
	C361.574615,19.478462 365.692749,31.242523 367.773102,43.581604 
	C371.753510,67.189842 366.893982,89.125137 353.557770,109.107246 
	C348.388123,116.853065 341.863373,123.070030 333.498566,127.290504 
	C332.649261,127.719017 331.974426,128.493347 330.792023,129.482727 
	C329.918213,129.874313 329.471008,129.890381 328.675720,129.694672 
	C323.356323,129.006012 318.375916,128.608307 313.415161,128.039459 
	C278.506348,124.036453 244.175491,118.059334 213.899094,98.470757 
	C210.954285,96.565475 209.069031,97.612358 207.295578,100.260162 
	C203.965652,105.231819 200.764221,110.341721 196.943832,114.922478 
	C187.111008,126.712311 174.456451,132.242691 158.999039,130.886292 
	C158.999786,114.911377 158.673706,98.927559 159.108047,82.964447 
	C159.436371,70.897491 161.988983,59.181660 168.187866,48.563942 
	C174.688354,37.429623 184.798935,31.533766 197.120163,29.063694 
	C200.335205,28.419163 203.707733,28.558752 206.921570,27.910215 
	C208.712128,27.548889 210.882599,26.740780 211.932236,25.393934 
	C223.805252,10.159118 239.759964,7.280294 257.653046,9.785847 
	C272.978516,11.931860 288.356415,13.725538 303.648376,16.082394 
	C320.449097,18.671782 336.466705,15.960972 352.512726,9.973282 
z"/>
<path fill="#FED2A4" opacity="1.000000" stroke="none" 
	d="
M158.950043,130.946213 
	C174.456451,132.242691 187.111008,126.712311 196.943832,114.922478 
	C200.764221,110.341721 203.965652,105.231819 207.295578,100.260162 
	C209.069031,97.612358 210.954285,96.565475 213.899094,98.470757 
	C244.175491,118.059334 278.506348,124.036453 313.415161,128.039459 
	C318.375916,128.608307 323.356323,129.006012 328.663147,130.169876 
	C328.530518,142.801132 328.956360,154.864853 327.380463,166.661148 
	C325.130432,183.503403 316.978516,197.980347 306.519531,211.300583 
	C288.499176,234.250687 266.026886,249.902283 236.509827,255.118591 
	C232.662659,254.044800 229.089752,253.284546 225.811890,251.850052 
	C220.399292,249.481293 215.177185,246.677231 209.874802,244.056610 
	C203.945328,239.223465 197.598846,234.813934 192.171234,229.470963 
	C180.032547,217.521637 170.628647,203.574783 163.969086,187.063354 
	C162.622253,181.005066 160.488022,175.759430 160.150986,170.400742 
	C159.328995,157.332047 159.339569,144.210999 159.014908,131.111023 
	C159.014908,131.111023 158.901062,131.006134 158.950043,130.946213 
M265.591675,205.195145 
	C259.808563,207.710037 254.092026,207.821762 248.210495,205.268631 
	C243.761337,203.337311 239.404449,205.007294 237.678940,208.826462 
	C235.857681,212.857574 237.300995,216.887421 241.850128,219.170792 
	C251.868500,224.199356 262.036926,224.187668 272.075378,219.218491 
	C276.426544,217.064621 277.967194,213.264328 276.548309,209.353271 
	C275.152863,205.506790 271.116333,203.738968 265.591675,205.195145 
M296.165649,150.360397 
	C294.367401,152.700058 291.763245,154.801407 290.982391,157.441940 
	C290.081787,160.487518 290.587524,164.025024 290.850006,167.319611 
	C291.192413,171.617218 294.305756,174.261856 298.470490,174.213776 
	C302.546082,174.166702 305.632111,171.366913 305.975616,167.118347 
	C306.188812,164.481537 306.089508,161.814911 306.048035,159.162964 
	C305.949036,152.830109 303.415771,150.350662 296.165649,150.360397 
M218.549744,150.703262 
	C212.563690,149.426437 208.493073,151.758789 208.033646,157.058258 
	C207.734207,160.512207 207.315033,164.205338 208.222641,167.433365 
	C208.916672,169.901764 211.305832,173.120453 213.486252,173.618530 
	C215.945557,174.180359 219.813919,172.846573 221.652084,170.957825 
	C225.378708,167.128693 223.445984,154.619858 218.549744,150.703262 
z"/>
<path fill="#565058" opacity="1.000000" stroke="none" 
	d="
M405.045319,368.273743 
	C403.231262,368.415009 401.417236,368.679565 399.603149,368.679901 
	C294.285797,368.699524 188.968475,368.699493 83.651131,368.679413 
	C81.666138,368.679047 79.681190,368.415863 77.321365,368.087219 
	C81.939735,345.371216 92.215340,325.755035 109.433998,310.170929 
	C115.666595,304.529968 123.506500,302.181274 131.726120,300.512939 
	C145.594574,297.697998 159.326675,294.211334 173.802505,291.192627 
	C186.519089,306.657867 198.565704,321.924774 210.559265,337.233276 
	C212.103058,339.203766 213.330994,340.711548 216.235428,339.097046 
	C229.570572,331.684631 243.005661,324.452026 256.594879,317.249695 
	C257.088379,317.398499 257.352020,317.319458 257.807983,317.391357 
	C271.026550,324.659180 284.042114,331.589752 296.974792,338.671783 
	C299.566406,340.090973 301.255280,340.216797 303.229919,337.594910 
	C310.010101,328.592407 317.020477,319.763275 324.118713,310.859680 
	C324.294342,310.851257 324.645691,310.866486 325.090881,310.896301 
	C337.481537,313.581573 349.495819,315.970093 361.338409,319.024261 
	C366.053040,320.240143 370.900818,322.225250 374.804688,325.071594 
	C389.740875,335.961700 399.196014,350.908417 405.045319,368.273743 
z"/>
<path fill="#F9F6F6" opacity="1.000000" stroke="none" 
	d="
M256.404877,317.154846 
	C243.005661,324.452026 229.570572,331.684631 216.235428,339.097046 
	C213.330994,340.711548 212.103058,339.203766 210.559265,337.233276 
	C198.565704,321.924774 186.519089,306.657867 174.210541,291.189270 
	C183.366837,288.666351 192.801376,286.331909 202.236176,283.998505 
	C204.545868,283.427246 206.856369,282.859222 209.690430,282.432068 
	C212.185303,284.087616 214.139099,285.623810 216.129974,287.110321 
	C229.550552,297.131042 242.978989,307.141235 256.404877,317.154846 
z"/>
<path fill="#F6A96C" opacity="1.000000" stroke="none" 
	d="
M209.929230,244.518585 
	C215.177185,246.677231 220.399292,249.481293 225.811890,251.850052 
	C229.089752,253.284546 232.662659,254.044800 236.628998,255.452286 
	C238.600388,256.503235 239.977951,257.453735 241.501984,257.877777 
	C253.166397,261.123260 264.895691,260.987579 276.154907,256.679596 
	C285.689087,253.031647 294.811096,248.306396 304.115479,244.057922 
	C304.083130,256.385345 304.050781,268.712738 303.893494,281.788513 
	C296.199738,288.036652 288.630890,293.536377 280.791504,298.716736 
	C280.351807,292.605530 280.060455,286.813751 280.056061,281.021790 
	C280.053070,277.085876 278.905670,275.466492 274.681152,276.827209 
	C265.490387,279.787537 256.038208,279.693726 246.608078,278.345306 
	C233.154053,276.421509 221.451950,270.190247 210.166870,263.031952 
	C210.105804,257.014832 210.044739,250.997696 209.929230,244.518585 
z"/>
<path fill="#FFBD86" opacity="1.000000" stroke="none" 
	d="
M210.093430,263.492981 
	C221.451950,270.190247 233.154053,276.421509 246.608078,278.345306 
	C256.038208,279.693726 265.490387,279.787537 274.681152,276.827209 
	C278.905670,275.466492 280.053070,277.085876 280.056061,281.021790 
	C280.060455,286.813751 280.351807,292.605530 280.736450,298.936218 
	C280.951996,299.475098 280.855499,299.917419 280.555908,300.064209 
	C272.696136,305.843109 265.135956,311.475250 257.575806,317.107391 
	C257.352020,317.319458 257.088379,317.398499 256.594879,317.249664 
	C242.978989,307.141235 229.550552,297.131042 216.129974,287.110321 
	C214.139099,285.623810 212.185303,284.087616 210.048416,282.274780 
	C209.928314,275.968079 209.974152,269.961060 210.093430,263.492981 
z"/>
<path fill="#F6A96C" opacity="1.000000" stroke="none" 
	d="
M158.555710,131.062225 
	C159.339569,144.210999 159.328995,157.332047 160.150986,170.400742 
	C160.488022,175.759430 162.622253,181.005066 163.924927,186.695648 
	C152.899796,187.335175 142.821518,184.730209 135.064224,176.470428 
	C125.514900,166.302505 124.053871,151.812485 131.029449,141.042694 
	C135.557846,134.051163 142.786499,131.758575 150.625046,131.036743 
	C153.095306,130.809250 155.604919,131.009155 158.555710,131.062225 
z"/>
<path fill="#FFBD86" opacity="1.000000" stroke="none" 
	d="
M304.426575,243.923431 
	C294.811096,248.306396 285.689087,253.031647 276.154907,256.679596 
	C264.895691,260.987579 253.166397,261.123260 241.501984,257.877777 
	C239.977951,257.453735 238.600388,256.503235 237.035812,255.462891 
	C266.026886,249.902283 288.499176,234.250687 306.519531,211.300583 
	C316.978516,197.980347 325.130432,183.503403 327.380463,166.661148 
	C328.956360,154.864853 328.530518,142.801132 329.011230,130.381653 
	C329.471008,129.890381 329.918213,129.874313 330.695374,129.795532 
	C338.697418,130.224762 346.369507,130.716660 354.505249,131.729462 
	C354.647705,144.942566 354.675964,157.657654 353.846252,170.316528 
	C353.475494,175.973267 351.381561,181.517059 350.069672,187.112122 
	C344.949768,200.011612 338.260681,212.025955 328.451874,221.917572 
	C320.887604,229.545685 312.666626,236.522552 304.426575,243.923431 
z"/>
<path fill="#433F43" opacity="1.000000" stroke="none" 
	d="
M405.492004,368.413757 
	C399.196014,350.908417 389.740875,335.961700 374.804688,325.071594 
	C370.900818,322.225250 366.053040,320.240143 361.338409,319.024261 
	C349.495819,315.970093 337.481537,313.581573 325.191986,310.559326 
	C329.938934,303.779724 335.029999,297.366974 340.121063,290.954193 
	C347.690277,292.623596 355.265411,294.266815 362.827240,295.969025 
	C372.160431,298.069916 381.685913,299.587372 390.759247,302.504852 
	C402.724823,306.352356 411.021393,315.241821 418.149902,325.270935 
	C427.184692,337.981964 433.561615,351.875885 437.079010,367.478088 
	C435.354492,368.017853 433.593658,368.166656 431.402649,368.415863 
	C430.511261,368.474762 430.049988,368.433289 429.022644,368.384644 
	C428.158325,368.500610 427.860168,368.623779 427.561981,368.746918 
	C420.354218,368.682526 413.146454,368.618134 405.492004,368.413757 
z"/>
<path fill="#F6A96C" opacity="1.000000" stroke="none" 
	d="
M350.514923,187.063126 
	C351.381561,181.517059 353.475494,175.973267 353.846252,170.316528 
	C354.675964,157.657654 354.647705,144.942566 354.961945,131.806244 
	C355.729950,131.229126 356.504852,131.096146 357.670502,130.903778 
	C364.061676,132.084946 370.698456,132.098160 375.934509,134.812973 
	C388.088196,141.114456 389.490356,156.374832 384.918030,167.054214 
	C378.576050,181.866791 366.220154,187.058975 350.514923,187.063126 
z"/>
<path fill="#DEDBED" opacity="1.000000" stroke="none" 
	d="
M339.935669,290.587860 
	C335.029999,297.366974 329.938934,303.779724 324.746765,310.529480 
	C324.645691,310.866486 324.294342,310.851257 323.870453,310.604675 
	C321.903717,309.829742 320.392456,309.167603 318.812988,308.794159 
	C306.167755,305.804443 293.509674,302.869263 280.855499,299.917419 
	C280.855499,299.917419 280.951996,299.475098 281.007019,299.255615 
	C288.630890,293.536377 296.199738,288.036652 303.958527,282.250977 
	C313.790710,284.305481 323.427765,286.667755 333.079193,288.969757 
	C335.277344,289.494049 337.525238,289.809814 339.935669,290.587860 
z"/>
<path fill="#444044" opacity="1.000000" stroke="none" 
	d="
M315.942017,412.368225 
	C315.794189,407.765961 317.491791,404.776733 321.556030,403.536652 
	C325.745239,402.258453 328.564819,404.402679 330.813660,407.653198 
	C338.668854,419.007416 346.515320,430.367706 354.379791,441.715515 
	C355.275970,443.008667 356.264984,444.237518 358.000854,446.547180 
	C358.000854,434.867554 357.990906,424.463593 358.010986,414.059723 
	C358.014191,412.400787 357.868042,410.666656 358.284363,409.098297 
	C359.291962,405.302277 361.921875,403.037018 365.883850,403.153778 
	C369.781708,403.268646 372.401093,405.431946 373.202698,409.397125 
	C373.431671,410.529694 373.503906,411.710907 373.505127,412.869965 
	C373.523956,430.846802 373.608673,448.824524 373.423096,466.799438 
	C373.395447,469.476685 372.712341,472.592163 371.215851,474.719360 
	C367.779999,479.603363 361.363647,478.861298 357.436798,473.294556 
	C349.862183,462.556702 342.466797,451.692474 334.981293,440.891602 
	C334.068756,439.574860 333.059021,438.325470 331.278717,435.962097 
	C331.278717,447.801971 331.393219,458.353363 331.190308,468.898651 
	C331.145081,471.249390 330.697113,474.486694 329.160461,475.693787 
	C327.122253,477.294800 323.318848,478.537354 321.218536,477.663544 
	C318.908752,476.702576 316.407593,473.267548 316.200745,470.730225 
	C315.553619,462.792664 315.944031,454.770142 315.941132,446.780548 
	C315.936981,435.461761 315.940613,424.143005 315.942017,412.368225 
z"/>
<path fill="#444246" opacity="1.000000" stroke="none" 
	d="
M87.547409,471.540802 
	C69.799828,460.247253 64.417122,439.219208 74.662285,422.179199 
	C84.705215,405.475494 106.384987,399.580780 123.001648,409.455872 
	C125.614571,411.008698 128.263657,414.491852 128.649902,417.382599 
	C129.435471,423.262054 122.624512,426.730164 116.923782,423.611847 
	C111.415642,420.598846 105.860901,419.201721 99.682640,421.014679 
	C88.939865,424.167145 82.707359,435.530914 85.908928,446.251038 
	C89.051292,456.772919 100.153870,463.265839 110.123146,460.077209 
	C112.696983,459.253967 115.062439,457.443939 117.212616,455.703064 
	C121.367554,452.339172 125.631096,452.091919 128.773438,455.395386 
	C131.928345,458.712128 131.609283,462.951752 127.905388,466.930054 
	C118.165657,477.391388 102.785995,479.242676 87.547409,471.540802 
z"/>
<path fill="#454347" opacity="1.000000" stroke="none" 
	d="
M285.940674,475.517548 
	C276.437256,475.893616 267.290100,476.267578 258.152435,476.105652 
	C253.586212,476.024750 251.282089,472.652679 251.247925,468.376678 
	C251.101501,450.051270 251.096588,431.723419 251.236435,413.397919 
	C251.275070,408.334869 254.377197,405.320496 259.440643,405.184204 
	C266.933167,404.982605 274.438080,404.994690 281.931793,405.169403 
	C286.981171,405.287109 290.039185,408.336578 290.129181,412.761017 
	C290.224091,417.428741 287.132324,420.525909 281.795105,420.722595 
	C277.008759,420.898956 272.210785,420.759674 267.130737,420.759674 
	C267.130737,424.981049 267.130737,428.716827 267.130737,433.027191 
	C271.192017,433.027191 275.142883,432.993317 279.092926,433.035217 
	C284.818085,433.095978 288.285278,435.884033 288.465027,440.499817 
	C288.653412,445.336670 285.185059,448.412323 279.158691,448.580719 
	C275.336670,448.687531 271.509247,448.600708 267.259003,448.600708 
	C267.259003,452.717377 267.259003,456.574738 267.259003,460.954712 
	C271.954010,460.954712 276.579529,461.057220 281.198181,460.923218 
	C285.104340,460.809937 288.238678,462.101410 289.617615,465.822632 
	C291.045959,469.677368 289.966980,473.033112 285.940674,475.517548 
z"/>
<path fill="#454347" opacity="1.000000" stroke="none" 
	d="
M413.258789,443.000000 
	C413.258881,435.219940 413.258881,427.939850 413.258881,420.080383 
	C410.495514,420.080383 408.216125,420.160919 405.944366,420.063812 
	C401.045044,419.854431 397.923157,416.809296 397.942413,412.375549 
	C397.960846,408.130402 400.910339,404.922272 405.546295,404.848969 
	C416.021027,404.683228 426.502808,404.670807 436.976532,404.869751 
	C441.586548,404.957275 444.413727,408.276276 444.311981,412.617157 
	C444.211548,416.902557 441.246246,419.816101 436.592285,420.051117 
	C434.288635,420.167419 431.974243,420.071320 428.909393,420.071320 
	C428.909393,422.112061 428.909424,423.862396 428.909393,425.612732 
	C428.908997,439.251099 428.936249,452.889526 428.895721,466.527771 
	C428.877289,472.730103 426.171783,476.104218 421.304810,476.228912 
	C416.218170,476.359161 413.330353,472.920349 413.275665,466.452271 
	C413.210968,458.802032 413.259338,451.150787 413.258789,443.000000 
z"/>
<path fill="#434044" opacity="1.000000" stroke="none" 
	d="
M153.951263,415.272156 
	C154.105972,408.443298 156.206253,405.361053 160.715729,404.881409 
	C165.812286,404.339294 169.217438,407.595856 169.258728,413.464600 
	C169.356033,427.295929 169.294739,441.128357 169.297501,454.960358 
	C169.297867,456.755005 169.297562,458.549683 169.297562,460.932465 
	C173.554459,460.932465 177.337509,460.830933 181.112808,460.958344 
	C185.772583,461.115601 188.851990,464.053711 189.016418,468.254944 
	C189.189117,472.666870 186.085144,476.018860 181.236160,476.166687 
	C175.076370,476.354370 168.905273,476.321808 162.742249,476.209351 
	C156.640121,476.098022 153.991608,473.388275 153.971954,467.231232 
	C153.917160,450.066406 153.951752,432.901245 153.951263,415.272156 
z"/>
<path fill="#434044" opacity="1.000000" stroke="none" 
	d="
M227.349976,444.000122 
	C227.348465,452.152130 227.412796,459.804871 227.323578,467.455872 
	C227.256729,473.187256 224.311188,476.618408 219.701782,476.636902 
	C215.083145,476.655426 212.004913,473.135590 211.990463,467.525085 
	C211.944595,449.725952 211.943939,431.926575 211.992111,414.127502 
	C212.007599,408.402496 214.915894,405.051300 219.630936,405.009644 
	C224.306213,404.968384 227.268173,408.318573 227.319290,414.056732 
	C227.406723,423.870483 227.347488,433.685577 227.349976,444.000122 
z"/>
<path fill="#63DBFB" opacity="1.000000" stroke="none" 
	d="
M427.793152,368.786865 
	C427.860168,368.623779 428.158325,368.500610 428.685852,368.477722 
	C428.643311,368.750763 428.346344,368.833710 427.793152,368.786865 
z"/>
<path fill="#F6AA6E" opacity="1.000000" stroke="none" 
	d="
M265.957764,205.035278 
	C271.116333,203.738968 275.152863,205.506790 276.548309,209.353271 
	C277.967194,213.264328 276.426544,217.064621 272.075378,219.218491 
	C262.036926,224.187668 251.868500,224.199356 241.850128,219.170792 
	C237.300995,216.887421 235.857681,212.857574 237.678940,208.826462 
	C239.404449,205.007294 243.761337,203.337311 248.210495,205.268631 
	C254.092026,207.821762 259.808563,207.710037 265.957764,205.035278 
z"/>
<path fill="#464144" opacity="1.000000" stroke="none" 
	d="
M296.547668,150.259048 
	C303.415771,150.350662 305.949036,152.830109 306.048035,159.162964 
	C306.089508,161.814911 306.188812,164.481537 305.975616,167.118347 
	C305.632111,171.366913 302.546082,174.166702 298.470490,174.213776 
	C294.305756,174.261856 291.192413,171.617218 290.850006,167.319611 
	C290.587524,164.025024 290.081787,160.487518 290.982391,157.441940 
	C291.763245,154.801407 294.367401,152.700058 296.547668,150.259048 
z"/>
<path fill="#464144" opacity="1.000000" stroke="none" 
	d="
M218.909775,150.865967 
	C223.445984,154.619858 225.378708,167.128693 221.652084,170.957825 
	C219.813919,172.846573 215.945557,174.180359 213.486252,173.618530 
	C211.305832,173.120453 208.916672,169.901764 208.222641,167.433365 
	C207.315033,164.205338 207.734207,160.512207 208.033646,157.058258 
	C208.493073,151.758789 212.563690,149.426437 218.909775,150.865967 
z"/>
<path fill="#F9F6F6" opacity="1.000000" stroke="none" 
	d="
M280.555908,300.064209 
	C293.509674,302.869263 306.167755,305.804443 318.812988,308.794159 
	C320.392456,309.167603 321.903717,309.829742 323.694824,310.613098 
	C317.020477,319.763275 310.010101,328.592407 303.229919,337.594910 
	C301.255280,340.216797 299.566406,340.090973 296.974792,338.671783 
	C284.042114,331.589752 271.026550,324.659180 257.807983,317.391357 
	C265.135956,311.475250 272.696136,305.843109 280.555908,300.064209 
z"/>
</svg>